<!-- Generated by IcoMoon.io -->
<svg version="1.1" xmlns="http://www.w3.org/2000/svg" width="34" height="32" viewBox="0 0 34 32">
<title>instagram</title>
<path d="M33.147 9.408c-0.074-1.701-0.349-2.869-0.744-3.882-0.424-1.111-1.054-2.059-1.85-2.837l-0.001-0.001c-0.78-0.792-1.725-1.419-2.78-1.827l-0.054-0.018c-1.019-0.394-2.182-0.667-3.885-0.742-1.714-0.082-2.258-0.101-6.605-0.101s-4.893 0.019-6.6 0.094c-1.701 0.074-2.869 0.349-3.883 0.742-1.113 0.424-2.061 1.054-2.84 1.85l-0.001 0.001c-0.793 0.78-1.421 1.724-1.828 2.778l-0.018 0.054c-0.392 1.019-0.666 2.181-0.742 3.882-0.080 1.712-0.099 2.256-0.099 6.602 0 4.344 0.018 4.888 0.093 6.595 0.075 1.701 0.352 2.869 0.746 3.882 0.427 1.111 1.056 2.057 1.85 2.837l0.001 0.001c0.8 0.813 1.77 1.443 2.832 1.843 1.021 0.395 2.184 0.67 3.886 0.744 1.707 0.075 2.251 0.094 6.598 0.094s4.891-0.019 6.6-0.094c1.701-0.074 2.87-0.349 3.883-0.742 2.158-0.85 3.834-2.526 4.665-4.628l0.019-0.055c0.395-1.019 0.67-2.182 0.746-3.882 0.074-1.707 0.093-2.251 0.093-6.595s-0.006-4.888-0.080-6.595zM30.264 22.474c-0.069 1.563-0.331 2.406-0.55 2.97-0.552 1.399-1.64 2.486-3.004 3.024l-0.036 0.013c-0.563 0.219-1.413 0.482-2.971 0.55-1.688 0.075-2.195 0.094-6.467 0.094s-4.784-0.019-6.469-0.094c-1.563-0.069-2.408-0.331-2.971-0.55-0.721-0.269-1.335-0.676-1.837-1.192l-0.001-0.001c-0.517-0.503-0.924-1.117-1.184-1.803l-0.011-0.034c-0.219-0.563-0.48-1.413-0.55-2.97-0.075-1.688-0.093-2.195-0.093-6.464 0-4.27 0.018-4.784 0.093-6.464 0.069-1.563 0.331-2.406 0.55-2.97 0.269-0.722 0.679-1.337 1.2-1.837l0.002-0.002c0.504-0.517 1.119-0.923 1.806-1.182l0.034-0.011c0.562-0.219 1.413-0.48 2.97-0.55 1.69-0.074 2.197-0.093 6.469-0.093 4.278 0 4.784 0.019 6.467 0.093 1.565 0.069 2.408 0.331 2.971 0.55 0.694 0.256 1.326 0.662 1.84 1.194 0.531 0.52 0.938 1.144 1.194 1.84 0.219 0.56 0.482 1.411 0.55 2.968 0.075 1.688 0.094 2.194 0.094 6.464 0 4.269-0.019 4.768-0.094 6.458z"></path>
<path d="M17.229 7.782c0 0-0.001 0-0.002 0-4.541 0-8.222 3.68-8.224 8.221v0c0 4.543 3.683 8.226 8.226 8.226s8.226-3.683 8.226-8.226v0c-0.002-4.541-3.683-8.221-8.224-8.221-0.001 0-0.001 0-0.002 0v0zM17.229 21.334c0 0-0.001 0-0.002 0-2.945 0-5.333-2.386-5.334-5.331v0c0-2.947 2.389-5.336 5.336-5.336s5.336 2.389 5.336 5.336v0c-0.001 2.945-2.389 5.333-5.334 5.333-0.001 0-0.001 0-0.002 0v0zM27.699 7.458c0 1.060-0.86 1.92-1.92 1.92s-1.92-0.86-1.92-1.92v0c0-1.060 0.86-1.92 1.92-1.92s1.92 0.86 1.92 1.92v0z"></path>
</svg>
