<!-- Generated by IcoMoon.io -->
<svg version="1.1" xmlns="http://www.w3.org/2000/svg" width="34" height="32" viewBox="0 0 34 32">
<title>linkedin</title>
<path d="M33.333 32h0.008v-11.738c0-5.741-1.237-10.163-7.952-10.163-3.229 0-5.397 1.77-6.28 3.45h-0.094v-2.914h-6.368v21.363h6.632v-10.578c0-2.786 0.528-5.48 3.979-5.48 3.4 0 3.451 3.179 3.451 5.658v10.402h6.624zM1.85 10.635h6.64v21.365h-6.64v-21.365zM5.166 0c-2.123 0-3.844 1.72-3.845 3.843v0c0 2.12 1.722 3.878 3.845 3.878 2.122 0 3.845-1.757 3.845-3.878-0.002-2.122-1.722-3.842-3.845-3.843v0z"></path>
</svg>
