<!-- Generated by IcoMoon.io -->
<svg version="1.1" xmlns="http://www.w3.org/2000/svg" width="34" height="32" viewBox="0 0 34 32">
<title>twitter</title>
<path d="M33.232 6.078c-1.1 0.493-2.376 0.857-3.713 1.028l-0.068 0.007c1.361-0.816 2.383-2.078 2.875-3.579l0.013-0.046c-1.198 0.722-2.593 1.273-4.079 1.573l-0.084 0.014c-1.203-1.279-2.906-2.075-4.795-2.075v0c-3.623 0-6.56 2.937-6.56 6.56 0 0.001 0 0.001 0 0.002v0c0 0.52 0.043 1.021 0.152 1.496-5.471-0.275-10.284-2.877-13.505-6.827l-0.027-0.034c-0.563 0.95-0.896 2.093-0.898 3.315v0c0 2.272 1.171 4.286 2.915 5.451-1.093-0.030-2.11-0.326-2.997-0.825l0.033 0.017v0.072c0.004 3.166 2.238 5.808 5.216 6.44l0.043 0.008c-0.499 0.136-1.072 0.215-1.663 0.215-0.020 0-0.041 0-0.061 0h0.003c-0.031 0.001-0.067 0.001-0.104 0.001-0.403 0-0.797-0.041-1.177-0.119l0.038 0.006c0.851 2.598 3.264 4.509 6.134 4.57-2.216 1.746-5.049 2.8-8.127 2.8-0.004 0-0.008 0-0.013 0h0.001c-0.538 0-1.056-0.026-1.571-0.091 2.828 1.846 6.291 2.944 10.010 2.944 0.021 0 0.042 0 0.064 0h-0.003c12.080 0 18.683-10 18.683-18.669 0-0.288-0.010-0.57-0.024-0.848 1.3-0.936 2.393-2.064 3.262-3.356l0.030-0.047z"></path>
</svg>
